# xmcd CD database file
#
# Track frame offsets:
#	150
#	13748
#	28496
#	48341
#	62271
#	92538
#	117701
#	138073
#	164415
#	184758
#	195513
#	206816
#	233776
#
# Disc length: 3307 seconds
#
# Revision: 0
# Processed by: cddbd v1.5.2PL0 Copyright (c) Steve Scherf et al.
# Submitted via: CDex 1.70beta2
#
DISCID=b10ce90d
DTITLE=Various Artist - Jazz - Lalbum ideal - CD2
DYEAR=1900
DGENRE=Jazz
TTITLE0=Sarah Vaughan - Ain't Misbehavin'
TTITLE1=Art Tatum - Tea For Two
TTITLE2=Benny Goodman - Seven Come Eleven
TTITLE3=Helen Merrill - Night And Day
TTITLE4=Art Blakey - The End Of A Love Affair
TTITLE5=Charles Mingus - Flamingo
TTITLE6=Thelonious Monk - Body And Soul
TTITLE7=Paul Desmond - Gerry Mulligan - All The Things You Are
TTITLE8=Martial Solal - Poinciana
TTITLE9=Wynton Marsalis - Cherokee
TTITLE10=Jaco Pastorius - Donna Lee
TTITLE11=Weather Report - Birdland
TTITLE12=Duke Ellington - Count Basie - Jumpin' At the Woodside
EXTD=
EXTT0=
EXTT1=
EXTT2=
EXTT3=
EXTT4=
EXTT5=
EXTT6=
EXTT7=
EXTT8=
EXTT9=
EXTT10=
EXTT11=
EXTT12=
PLAYORDER=
